<?xml version="1.0" encoding="UTF-8" standalone="no" ?>
<!DOCTYPE svg PUBLIC "-//W3C//DTD SVG 1.1//EN" "http://www.w3.org/Graphics/SVG/1.1/DTD/svg11.dtd">
<svg xmlns="http://www.w3.org/2000/svg" xmlns:xlink="http://www.w3.org/1999/xlink" version="1.1" width="1080" height="1080" viewBox="0 0 1080 1080" xml:space="preserve">
<desc>Created with Fabric.js 5.2.4</desc>
<defs>
</defs>
<g transform="matrix(1 0 0 1 540 540)" id="67e54d78-fd5b-49f4-aae5-f2743c87f9b7"  >
<rect style="stroke: none; stroke-width: 1; stroke-dasharray: none; stroke-linecap: butt; stroke-dashoffset: 0; stroke-linejoin: miter; stroke-miterlimit: 4; fill: rgb(255,255,255); fill-rule: nonzero; opacity: 1; visibility: hidden;" vector-effect="non-scaling-stroke"  x="-540" y="-540" rx="0" ry="0" width="1080" height="1080" />
</g>
<g transform="matrix(1 0 0 1 540 540)" id="8610c84c-f425-432d-a9b3-8266d1916446"  >
</g>
<g transform="matrix(1 0 0 1 540 540)" id="90c68c01-aa07-4a07-8e7b-93dcbd3160df"  >
<path style="stroke: rgb(0,183,97); stroke-width: 0; stroke-dasharray: none; stroke-linecap: butt; stroke-dashoffset: 0; stroke-linejoin: miter; stroke-miterlimit: 4; fill: rgb(0,183,97); fill-rule: nonzero; opacity: 1;" vector-effect="non-scaling-stroke"  transform=" translate(-12, -12)" d="M 11.021 10.591 L 8.43 7.999999999999999 L 15.594 7.993999999999999 L 12.997 10.591 C 12.47 11.117999999999999 11.549 11.117999999999999 11.021 10.591 Z M 24 12 C 24 18.617 18.617 24 12 24 C 5.382999999999999 24 0 18.617 0 12 C 0 5.382999999999999 5.383 0 12 0 C 18.617 0 24 5.383 24 12 Z M 18.993000000000002 8.993 C 18.993000000000002 8.535 18.882 8.106 18.698 7.7170000000000005 L 18.707 7.708 L 18.675 7.676 C 18.382 7.083 17.903000000000002 6.603 17.310000000000002 6.311 L 17.293000000000003 6.294 L 17.288000000000004 6.2989999999999995 C 16.894000000000005 6.108999999999999 16.458000000000006 5.992999999999999 15.992000000000004 5.992999999999999 L 8.000000000000004 5.999999999999999 C 7.542000000000003 5.999999999999999 7.113000000000003 6.110999999999999 6.725000000000003 6.294999999999999 L 6.724000000000003 6.294999999999999 L 6.720000000000003 6.297999999999999 C 5.707000000000003 6.779999999999999 5.0000000000000036 7.805999999999999 5.0000000000000036 9 L 5.0000000000000036 17 L 18.993000000000002 16.992 L 18.993000000000002 8.992 Z M 12.009000000000002 13 C 11.102000000000002 13 10.248000000000003 12.646 9.607000000000003 12.005 L 7.001000000000003 9.398 L 7.001000000000003 14.998999999999999 L 16.994000000000003 14.992999999999999 L 16.994000000000003 9.421 L 14.411000000000003 12.004 C 13.770000000000003 12.645999999999999 12.917000000000003 12.998999999999999 12.010000000000003 12.998999999999999 Z" stroke-linecap="round" />
</g>
<g transform="matrix(NaN NaN NaN NaN 0 0)"  >
<g style=""   >
</g>
</g>
<g transform="matrix(NaN NaN NaN NaN 0 0)"  >
<g style=""   >
</g>
</g>
<g transform="matrix(NaN NaN NaN NaN 0 0)"  >
<g style=""   >
</g>
</g>
<g transform="matrix(NaN NaN NaN NaN 0 0)"  >
<g style=""   >
</g>
</g>
<g transform="matrix(NaN NaN NaN NaN 0 0)"  >
<g style=""   >
</g>
</g>
<g transform="matrix(NaN NaN NaN NaN 0 0)"  >
<g style=""   >
</g>
</g>
<g transform="matrix(NaN NaN NaN NaN 0 0)"  >
<g style=""   >
</g>
</g>
<g transform="matrix(NaN NaN NaN NaN 0 0)"  >
<g style=""   >
</g>
</g>
<g transform="matrix(NaN NaN NaN NaN 0 0)"  >
<g style=""   >
</g>
</g>
</svg>