<?xml version="1.0" encoding="utf-8"?>
<!-- Generator: Adobe Illustrator 11.0, SVG Export Plug-In  -->
<!DOCTYPE svg PUBLIC "-//W3C//DTD SVG 1.0//EN"    "http://www.w3.org/TR/2001/REC-SVG-20010904/DTD/svg10.dtd" [
	<!ENTITY ns_flows "http://ns.adobe.com/Flows/1.0/">
	<!ENTITY ns_svg "http://www.w3.org/2000/svg">
	<!ENTITY ns_xlink "http://www.w3.org/1999/xlink">
]>
<svg  xmlns="&ns_svg;" xmlns:xlink="&ns_xlink;" xmlns:a="http://ns.adobe.com/AdobeSVGViewerExtensions/3.0/"
	 width="390" height="390" viewBox="-0.855 -0.856 390 390" xml:space="preserve">
	<defs>
	</defs>
	<g>
		<path fill="#002947" d="M323.132,282.37H65.157c-4.848,0-8.778-3.93-8.778-8.777V129.576c0-4.848,3.93-8.778,8.778-8.778h257.975
			c4.849,0,8.778,3.93,8.778,8.778v144.017C331.91,278.44,327.98,282.37,323.132,282.37"/>
		<path fill="#002947" d="M111.841,120.798h-36.93v-5.746c0-3.588,2.909-6.497,6.496-6.497h23.937c3.588,0,6.497,2.909,6.497,6.497
			V120.798z"/>
		<path fill="#002947" d="M253.511,129.435H149.03l8.118-20.994c1.987-5.136,6.927-8.523,12.434-8.523h65.8
			c6.036,0,11.319,4.056,12.879,9.887L253.511,129.435z"/>
		<path fill="#FCF2E3" d="M310.78,151.86h-22.743c-2.864,0-5.187-2.322-5.187-5.187v-12.051c0-2.865,2.322-5.187,5.187-5.187h22.743
			c2.864,0,5.187,2.322,5.187,5.187v12.051C315.967,149.538,313.645,151.86,310.78,151.86"/>
		<path fill="#FCF2E3" d="M253.511,201.583c0,32.788-26.579,59.367-59.366,59.367c-32.787,0-59.367-26.579-59.367-59.367
			c0-32.787,26.58-59.366,59.367-59.366C226.932,142.217,253.511,168.796,253.511,201.583"/>
		<path fill="#002947" d="M233.348,201.583c0,21.651-17.552,39.203-39.203,39.203c-21.651,0-39.203-17.552-39.203-39.203
			c0-21.651,17.552-39.202,39.203-39.202C215.796,162.381,233.348,179.933,233.348,201.583"/>
		<path fill="#FCF2E3" d="M222.876,188.115c0,4.66-3.778,8.438-8.438,8.438S206,192.775,206,188.115s3.777-8.438,8.438-8.438
			S222.876,183.455,222.876,188.115"/>
		<path fill="#FCF2E3" d="M86.221,138.823c0,4.509-3.656,8.165-8.165,8.165c-4.509,0-8.165-3.656-8.165-8.165
			s3.656-8.165,8.165-8.165C82.565,130.658,86.221,134.314,86.221,138.823"/>
		<line fill="none" stroke="#002947" stroke-width="27" stroke-miterlimit="10" x1="56.379" y1="68.241" x2="331.91" y2="310.99"/>
		<line fill="none" stroke="#FCF2E3" stroke-width="3" stroke-miterlimit="10" x1="47.032" y1="77.588" x2="322.563" y2="320.335"/>
		<circle fill="none" stroke="#002947" stroke-width="27" stroke-miterlimit="10" cx="194.144" cy="194.144" r="180.644"/> 
	</g>
</svg>
