<?xml version="1.0" encoding="utf-8"?>
<!-- Generator: Adobe Illustrator 11.0, SVG Export Plug-In  -->
<!DOCTYPE svg PUBLIC "-//W3C//DTD SVG 1.0//EN"    "http://www.w3.org/TR/2001/REC-SVG-20010904/DTD/svg10.dtd" [
	<!ENTITY ns_flows "http://ns.adobe.com/Flows/1.0/">
	<!ENTITY ns_svg "http://www.w3.org/2000/svg">
	<!ENTITY ns_xlink "http://www.w3.org/1999/xlink">
]>
<svg  xmlns="&ns_svg;" xmlns:xlink="&ns_xlink;" xmlns:a="http://ns.adobe.com/AdobeSVGViewerExtensions/3.0/"
	 width="79" height="79" viewBox="-0.612 -0.773 79 79" xml:space="preserve">
	<defs>
	</defs>
	<g>
		<path fill="#00B761" d="M77.915,38.957c0,21.517-17.44,38.957-38.957,38.957C17.442,77.914,0,60.473,0,38.957
			C0,17.441,17.442,0,38.958,0C60.474,0,77.915,17.441,77.915,38.957"/>
		<path fill="none" stroke="#616161" d="M33.935,22.117c-1.774,1.126-2.832,3.101-2.832,5.202v5.724h14.853v-5.769
			C45.354,22.133,39.507,18.577,33.935,22.117z"/>
		<path fill="#FFFFFF" d="M24.19,60.3h28.73c1.888,0,3.467-1.296,3.911-3.044H20.28C20.725,59.004,22.306,60.3,24.19,60.3z"/>
		<path fill="#FFFFFF" d="M20.149,56.256c0,0.346,0.049,0.68,0.13,1h36.552c0.081-0.32,0.13-0.654,0.13-1v-0.642H20.149V56.256z"/>
		<path fill="#FFFFFF" d="M51.831,28.145c0-9.555-10.148-16.788-20.229-11.479c-3.924,2.066-6.32,6.202-6.32,10.636v5.74h-2.607
			c-1.395,0-2.525,1.13-2.525,2.525v20.047h36.812V35.567c0-1.395-1.13-2.524-2.524-2.524h-2.606h-0.084v-4.898H51.831z
			 M40.249,46.932v3.187h-3.385v-3.187c-1.453-0.896-2.159-2.882-0.887-4.839c0.125-0.191,0.291-0.359,0.481-0.483
			c2.595-1.71,5.338,0.108,5.338,2.569C41.796,45.347,41.174,46.361,40.249,46.932z M45.956,33.042H31.103v-5.724
			c0-2.102,1.058-4.076,2.832-5.202c5.573-3.54,11.419,0.017,12.021,5.157V33.042z"/>
	</g>
</svg>
