<?xml version="1.0" encoding="utf-8"?>
<!-- Generator: Adobe Illustrator 11.0, SVG Export Plug-In  -->
<!DOCTYPE svg PUBLIC "-//W3C//DTD SVG 1.0//EN"    "http://www.w3.org/TR/2001/REC-SVG-20010904/DTD/svg10.dtd" [
	<!ENTITY ns_flows "http://ns.adobe.com/Flows/1.0/">
	<!ENTITY ns_svg "http://www.w3.org/2000/svg">
	<!ENTITY ns_xlink "http://www.w3.org/1999/xlink">
]>
<svg  xmlns="&ns_svg;" xmlns:xlink="&ns_xlink;" xmlns:a="http://ns.adobe.com/AdobeSVGViewerExtensions/3.0/"
	 width="53" height="53" viewBox="-0.181 -0.36 53 53" xml:space="preserve">
	<defs>
	</defs>
	<g>
		<path fill="#00B761" d="M52.5,26.25c0,14.498-11.753,26.25-26.25,26.25C11.752,52.5,0,40.748,0,26.25S11.752,0,26.25,0
			C40.747,0,52.5,11.752,52.5,26.25"/>
		<path fill="#FFFFFF" d="M39.294,31.863c-0.166-0.264-1.306-0.811-1.306-0.811c-0.45-0.225-3.759-1.846-4.381-2.067
			c-0.533-0.19-1.136-0.408-1.676,0.396c-0.411,0.608-1.614,2.012-2.005,2.455c-0.275,0.313-0.526,0.414-1.135,0.11
			c-0.103-0.05-3.05-1.31-5.082-3.108c-1.805-1.593-3.054-3.561-3.506-4.334c-0.281-0.472-0.098-0.69,0.245-1.035
			c0.214-0.207,1.146-1.336,1.22-1.445c0.149-0.227,0.416-0.77,0.416-0.77c0.269-0.533,0.101-0.994-0.049-1.3
			c-0.109-0.21-1.805-4.297-1.968-4.681c-0.483-1.154-0.999-1.215-1.493-1.186c-0.24,0.017-2.486,0.033-3.201,0.811l-0.125,0.133
			c-0.703,0.743-2.164,2.289-2.164,5.279c0,0.688,0.109,1.41,0.336,2.213c0.418,1.441,1.233,3.018,2.312,4.461
			c0.024,0.029,1.667,2.313,2.489,3.258c2.598,2.992,5.533,5.202,8.494,6.359c3.783,1.478,5.397,1.815,6.314,1.815
			c0.402,0,1.246-0.204,1.43-0.221c1.155-0.104,3.903-1.535,4.479-3.144C39.486,33.533,39.497,32.204,39.294,31.863"/>
	</g>
</svg>
